<svg xmlns="http://www.w3.org/2000/svg" xmlns:xlink="http://www.w3.org/1999/xlink" viewBox="0,0,256,256" width="48px" height="48px" fill-rule="nonzero"><g fill="#ffffff" fill-rule="nonzero" stroke="none" stroke-width="1" stroke-linecap="butt" stroke-linejoin="miter" stroke-miterlimit="10" stroke-dasharray="" stroke-dashoffset="0" font-family="none" font-weight="none" font-size="none" text-anchor="none" style="mix-blend-mode: normal"><g transform="scale(5.33333,5.33333)"><path d="M33,3.03906c-0.18525,0.00015 -0.36982,0.01399 -0.55273,0.04102c-0.73165,0.1081 -1.4323,0.42848 -2,0.94531c-3.31755,3.02278 -9.27595,8.4475 -14.64258,13.33398l-5.53711,-4.21875l-0.01172,-0.00781c-1.26461,-0.92668 -2.94976,-0.80373 -4.12891,0.03711v0.00195h-0.00195c-0.39307,0.28112 -0.79075,0.64381 -1.18359,0.99609c-0.39284,0.35228 -0.72461,0.66016 -0.72461,0.66016l0.08398,-0.07227c-1.62737,1.3026 -1.71562,3.81704 -0.18164,5.23047l0.00391,0.00391l4.39844,4.00195c-2.25681,2.05438 -4.39648,4.00195 -4.39648,4.00195l-0.00391,0.00391l-0.00391,0.00195c-1.53244,1.41375 -1.44327,3.92828 0.18359,5.23047l-0.08398,-0.07227c0,0 0.3316,0.30748 0.72461,0.66016c0.39263,0.35233 0.78815,0.71513 1.18555,0.99805c1.17914,0.84084 2.8643,0.96573 4.12891,0.03906l0.01172,-0.00781l5.54688,-4.2207l14.64258,13.31836c1.13833,1.03649 2.80777,1.28531 4.19922,0.61523c2.65993,-1.27996 6.49526,-3.12772 8.09375,-3.89844c1.37846,-0.66364 2.25781,-2.06767 2.25781,-3.59375v-26.19726c0,-1.53056 -0.88399,-2.93605 -2.26758,-3.5957h-0.00195c-1.49223,-0.71261 -5.16531,-2.46457 -8.10352,-3.86719c-0.51962,-0.24811 -1.07902,-0.36959 -1.63477,-0.36914zM32,6.67188v7.86719l-9.95508,7.57617l-3.81445,-2.90625c5.07078,-4.61707 10.49747,-9.55602 13.76953,-12.53711zM35,6.90625c2.48045,1.18388 5.26162,2.50999 6.44727,3.07617c0.34562,0.16462 0.56055,0.50374 0.56055,0.88867v26.19727c0,0.38592 -0.21305,0.72427 -0.55859,0.89063c-1.27171,0.61316 -4.06125,1.9559 -6.44922,3.10547zM8.21289,15.4707c0.10154,-0.00666 0.19084,0.02437 0.26953,0.08203l23.51758,17.92188v7.81836l-25.84766,-23.51172c-0.22202,-0.20457 -0.21319,-0.49419 0.02344,-0.68359l0.04297,-0.03516l0.04102,-0.03711c0,0 0.31564,-0.29133 0.68555,-0.62305c0.36907,-0.33097 0.84823,-0.73472 0.92383,-0.78906c0.12843,-0.09158 0.24221,-0.13592 0.34375,-0.14258zM32,18.31055v11.39258l-7.48047,-5.70117zM10.75,26.01953l2.80859,2.55273l-5.07617,3.86328c-0.15739,0.11533 -0.35642,0.12066 -0.61328,-0.0625h-0.00195c-0.07022,-0.04996 -0.55238,-0.45553 -0.92187,-0.78711c-0.36949,-0.33158 -0.68359,-0.62305 -0.68359,-0.62305l-0.04102,-0.03906l-0.04492,-0.03516c-0.23714,-0.18981 -0.247,-0.47734 -0.02344,-0.68359c0.00564,-0.00514 2.15902,-1.96561 4.59766,-4.18555z"></path></g></g></svg>